<svg width="392" height="145" viewBox="0 0 392 145" fill="none" xmlns="http://www.w3.org/2000/svg">
<defs>
	<linearGradient id="l2r">
		<stop offset="0" stop-color="#1D57C7">
			<animate dur="1.5" attributeName="offset" fill="freeze" from="0" to="1" repeatCount="indefinite" />
		</stop>
		<stop offset="1" stop-color="#2E3645">
			<animate dur="1.5" attributeName="offset" fill="freeze" from="0" to="0.9" repeatCount="indefinite" />
		</stop>
	</linearGradient>
</defs>
<path fill="#2E3645" d="M374.464 132.108L306.075 72.5043L257.561 101.13L289.053 79.0191L201.808 0L126.497 76.5471L135.475 62.6419L123.713 51.2689L95.6656 74.8991L81.5731 70.3842L0 145H200H392L374.464 132.108ZM306.949 82.4611L328.443 99.894L315.773 100.263L306.4 110.263L306.169 98.0486L260.02 110.005H259.806L306.949 82.4611ZM201.174 15.845L231.458 56.0069C231.458 56.0069 214.693 46.9686 213.596 48.196C212.5 49.4234 186.688 81.4139 186.688 81.4139L185.232 62.5132L180.091 73.0193L179.363 63.5604L130.644 87.9802L201.174 15.845ZM83.6206 78.3754L91.879 86.9245L118.719 65.3199L109.904 84.5726L106.888 81.7315L79.3286 112.495C79.3286 112.495 79.2515 108.477 79.2173 107.018C79.2001 105.551 70.3849 109.834 70.3849 109.834L78.9346 92.0574L61.2355 95.8598L83.6206 78.3754Z" />
<path fill="url(#l2r)" d="M374.464 132.108L306.075 72.5043L257.561 101.13L289.053 79.0191L201.808 0L126.497 76.5471L135.475 62.6419L123.713 51.2689L95.6656 74.8991L81.5731 70.3842L0 145H200H392L374.464 132.108ZM306.949 82.4611L328.443 99.894L315.773 100.263L306.4 110.263L306.169 98.0486L260.02 110.005H259.806L306.949 82.4611ZM201.174 15.845L231.458 56.0069C231.458 56.0069 214.693 46.9686 213.596 48.196C212.5 49.4234 186.688 81.4139 186.688 81.4139L185.232 62.5132L180.091 73.0193L179.363 63.5604L130.644 87.9802L201.174 15.845ZM83.6206 78.3754L91.879 86.9245L118.719 65.3199L109.904 84.5726L106.888 81.7315L79.3286 112.495C79.3286 112.495 79.2515 108.477 79.2173 107.018C79.2001 105.551 70.3849 109.834 70.3849 109.834L78.9346 92.0574L61.2355 95.8598L83.6206 78.3754Z" />
</svg>
